<svg width="60" height="60" viewBox="0 0 60 60" fill="none" xmlns="http://www.w3.org/2000/svg">
<circle cx="30" cy="30" r="30" fill="url(#paint0_linear_1031_2878)"/>
<path d="M37.5 21.5V17.5C37.5 16.3954 36.6046 15.5 35.5 15.5H18.5C17.3954 15.5 16.5 16.3954 16.5 17.5V44C16.5 45.1046 17.3954 46 18.5 46H35.5C36.6046 46 37.5 45.1046 37.5 44V28" stroke="#F4C23F" stroke-width="3"/>
<path d="M23 39.4617C23.8459 37.6757 24.7229 35.9065 25.526 34.1003C26.01 33.0137 26.6706 32.1106 27.4802 31.268C33.3234 25.1893 39.142 19.0837 44.9671 12.9859C45.4736 12.4566 46.0486 12.094 46.7821 12.0135C47.9803 11.8825 49.2374 12.7196 49.6079 13.9304C49.9666 15.1065 49.6732 16.1081 48.8572 16.9631C47.3892 18.504 45.9179 20.0416 44.4478 21.5792C39.7674 26.4762 35.0891 31.3754 30.4045 36.2679C30.2331 36.447 30.0254 36.6048 29.8091 36.7189C27.8367 37.7619 25.859 38.7914 23.8834 39.8277C23.7934 39.8747 23.7131 39.9418 23.6296 40C23.4197 40 23.2099 40 23 40C23 39.821 23 39.6408 23 39.4617ZM44.0644 15.3595C38.4996 21.1808 32.9315 27.0066 27.3988 32.7944C28.2243 33.6594 29.0692 34.5435 29.8841 35.3984C35.4264 29.5972 40.9934 23.7692 46.5465 17.9557C45.7273 17.0985 44.8879 16.22 44.0644 15.3595ZM47.3035 17.2619C47.6023 16.9452 47.9171 16.6173 48.2266 16.2827C48.3379 16.1607 48.4471 16.0331 48.5382 15.8944C48.9622 15.2531 48.9504 14.3881 48.5167 13.7682C48.036 13.0799 47.2661 12.7901 46.5336 13.0318C45.7231 13.2993 45.3076 14.0569 44.7369 14.5694C45.6031 15.4781 46.4405 16.3565 47.3035 17.2619ZM29.0521 36.0643C28.2832 35.2597 27.5305 34.4741 26.7595 33.6695C26.0217 35.2149 25.2733 36.7816 24.5248 38.3483C24.5451 38.3662 24.5644 38.3841 24.5837 38.4009C26.0774 37.6198 27.5712 36.8387 29.0521 36.0643Z" fill="#67BAEB" stroke="#67BAEB" stroke-width="1.6"/>
<defs>
<linearGradient id="paint0_linear_1031_2878" x1="30" y1="0" x2="30" y2="60" gradientUnits="userSpaceOnUse">
<stop stop-color="#FCFDFF"/>
<stop offset="1" stop-color="#E9F2FF"/>
</linearGradient>
</defs>
</svg>
