<svg width="30" height="16" viewBox="0 0 30 16" fill="none" xmlns="http://www.w3.org/2000/svg">
<path d="M15.0002 15.3333C14.5135 15.3343 14.0417 15.1648 13.6669 14.8542L1.16692 4.4375C0.741464 4.08388 0.473913 3.57573 0.423122 3.02484C0.372331 2.47395 0.54246 1.92545 0.896082 1.5C1.2497 1.07455 1.75785 0.806998 2.30874 0.756206C2.85963 0.705415 3.40813 0.875543 3.83358 1.22917L15.0002 10.5625L26.1669 1.5625C26.38 1.38945 26.6252 1.26021 26.8884 1.18223C27.1516 1.10425 27.4276 1.07905 27.7006 1.10809C27.9736 1.13713 28.2381 1.21983 28.4791 1.35145C28.72 1.48306 28.9325 1.66099 29.1044 1.875C29.2952 2.08921 29.4397 2.34052 29.5289 2.61317C29.618 2.88582 29.6499 3.17395 29.6225 3.4595C29.5951 3.74505 29.5091 4.02186 29.3697 4.27261C29.2304 4.52335 29.0408 4.74261 28.8127 4.91667L16.3127 14.9792C15.9272 15.2407 15.465 15.3654 15.0002 15.3333Z" fill="#7E7E7E"/>
</svg>
