<svg width="21" height="21" viewBox="0 0 21 21" fill="none" xmlns="http://www.w3.org/2000/svg">
<path d="M13.3382 10.9903L20.498 3.84723C20.8115 3.53369 20.9876 3.10844 20.9876 2.66503C20.9876 2.22163 20.8115 1.79638 20.498 1.48284C20.1844 1.16931 19.7592 0.993164 19.3158 0.993164C18.8724 0.993164 18.4471 1.16931 18.1336 1.48284L10.9905 8.64259L3.84738 1.48284C3.53385 1.16931 3.1086 0.993164 2.66519 0.993164C2.22178 0.993164 1.79654 1.16931 1.483 1.48284C1.16946 1.79638 0.99332 2.22163 0.99332 2.66503C0.99332 3.10844 1.16946 3.53369 1.483 3.84723L8.64275 10.9903L1.483 18.1334C1.32694 18.2882 1.20307 18.4724 1.11853 18.6753C1.034 18.8782 0.990479 19.0958 0.990479 19.3156C0.990479 19.5354 1.034 19.7531 1.11853 19.956C1.20307 20.1589 1.32694 20.343 1.483 20.4978C1.63779 20.6539 1.82195 20.7777 2.02485 20.8623C2.22775 20.9468 2.44538 20.9903 2.66519 20.9903C2.885 20.9903 3.10263 20.9468 3.30553 20.8623C3.50844 20.7777 3.69259 20.6539 3.84738 20.4978L10.9905 13.3381L18.1336 20.4978C18.2884 20.6539 18.4725 20.7777 18.6754 20.8623C18.8783 20.9468 19.096 20.9903 19.3158 20.9903C19.5356 20.9903 19.7532 20.9468 19.9561 20.8623C20.159 20.7777 20.3432 20.6539 20.498 20.4978C20.654 20.343 20.7779 20.1589 20.8624 19.956C20.947 19.7531 20.9905 19.5354 20.9905 19.3156C20.9905 19.0958 20.947 18.8782 20.8624 18.6753C20.7779 18.4724 20.654 18.2882 20.498 18.1334L13.3382 10.9903Z" fill="#5A5A5A"/>
</svg>
