<svg width="18" height="24" viewBox="0 0 18 24" fill="none" xmlns="http://www.w3.org/2000/svg">
<path d="M1.38055 22.2175L1.3775 22.2158C1.33887 22.1941 1.30672 22.1625 1.28432 22.1243C1.262 22.0862 1.25016 22.0429 1.24999 21.9988V3.6625V3.65123L1.24974 3.63996C1.23877 3.15338 1.41999 2.68207 1.75413 2.32819C2.08471 1.97807 2.53862 1.77079 3.01929 1.75H14.9807C15.4614 1.77079 15.9153 1.97807 16.2458 2.32819C16.58 2.68207 16.7612 3.15338 16.7502 3.63996L16.75 3.65123V3.6625V21.9959C16.7494 22.0388 16.7377 22.0809 16.7161 22.1181C16.6942 22.1558 16.6628 22.1872 16.625 22.209L16.625 22.209C16.587 22.2309 16.5439 22.2425 16.5 22.2425C16.4561 22.2425 16.413 22.2309 16.375 22.209L16.375 22.2089L16.3677 22.2048L9.28016 18.1923L8.77271 17.905L8.27276 18.2051L1.61026 22.2051L1.6039 22.209L1.5976 22.2129C1.56432 22.2335 1.52671 22.246 1.48783 22.2495C1.45017 22.2471 1.41349 22.2362 1.38055 22.2175Z" stroke="#4F79C6" stroke-width="2"/>
</svg>
