<svg width="22" height="21" viewBox="0 0 22 21" fill="none" xmlns="http://www.w3.org/2000/svg">
<path d="M20.5099 8.60417L11.6333 0.395838C11.5262 0.298205 11.3989 0.220711 11.2586 0.167827C11.1183 0.114942 10.9678 0.0877151 10.8158 0.0877151C10.6638 0.0877151 10.5134 0.114942 10.3731 0.167827C10.2328 0.220711 10.1054 0.298205 9.9984 0.395838L1.12175 8.61459C0.90696 8.81049 0.737323 9.04305 0.62269 9.29877C0.508058 9.55448 0.450715 9.82825 0.45399 10.1042V18.8333C0.453098 19.3666 0.678236 19.8798 1.08304 20.2674C1.48784 20.655 2.04149 20.8873 2.62998 20.9167H19.0017C19.5902 20.8873 20.1438 20.655 20.5486 20.2674C20.9534 19.8798 21.1786 19.3666 21.1777 18.8333V10.1042C21.1786 9.54473 20.9391 9.00686 20.5099 8.60417ZM8.5132 18.8333V12.5833H13.1185V18.8333H8.5132ZM18.875 18.8333H15.4211V11.5417C15.4211 11.2654 15.2998 11.0005 15.0839 10.8051C14.868 10.6098 14.5751 10.5 14.2698 10.5H7.36189C7.05654 10.5 6.7637 10.6098 6.54778 10.8051C6.33187 11.0005 6.21057 11.2654 6.21057 11.5417V18.8333H2.75662V10.0625L10.8158 2.61459L18.875 10.1042V18.8333Z" fill="#7E7E7E"/>
</svg>
