<svg  viewBox="0 0 60 60" fill="none" style="background-color:#fff" xmlns="http://www.w3.org/2000/svg">
<path fill-rule="evenodd" clip-rule="evenodd" d="M0 30V60H30H60V30V0H30H0V30ZM37.852 10.739C45.486 16.438 46.657 24.005 41.259 32.75C39.477 35.638 38.428 38 38.928 38C40.122 38 44 44.307 44 46.249C44 49.577 27.746 51.149 19.5 48.619C14.848 47.191 14.682 45.477 18.684 40.192L21.19 36.885L18.634 33.023C13.931 25.917 13.966 19.57 18.74 13.897C23.787 7.899 32.188 6.51 37.852 10.739ZM26.357 14.992C23.39 16.189 21 19.896 21 23.299C21 27.178 25.871 32 29.788 32C38.78 32 42.013 19.643 34.093 15.548C30.756 13.822 29.482 13.731 26.357 14.992ZM25.168 36.109L21.835 37.1L23.588 39.8C24.553 41.285 26.277 43.957 27.421 45.738C28.564 47.518 29.725 48.971 30 48.965C30.672 48.952 37 38.989 37 37.944C37 35.858 29.778 34.738 25.168 36.109Z" />
</svg>
