<svg width="11" height="14" viewBox="0 0 11 14" fill="none" xmlns="http://www.w3.org/2000/svg">
<path d="M6.37676 8.62416C7.44959 8.62416 8.47848 8.16986 9.23709 7.36118C9.9957 6.55251 10.4219 5.45572 10.4219 4.31208C10.4219 3.16845 9.9957 2.07165 9.23709 1.26298C8.47848 0.454307 7.44959 0 6.37676 0H0.421875V1.30422H1.94904V7.31994H0.421875V8.62416H1.94904V10.4134H0.421875V11.7176H1.94904V14H3.17252V11.7176H6.84512V10.4134H3.17252V8.62416H6.37676ZM3.17252 1.30422H6.37676C6.7473 1.30422 7.11422 1.38202 7.45655 1.53318C7.79889 1.68434 8.10995 1.9059 8.37196 2.1852C8.63398 2.46451 8.84181 2.79609 8.98362 3.16102C9.12542 3.52595 9.1984 3.91708 9.1984 4.31208C9.1984 4.70708 9.12542 5.09821 8.98362 5.46314C8.84181 5.82807 8.63398 6.15965 8.37196 6.43896C8.10995 6.71827 7.79889 6.93982 7.45655 7.09098C7.11422 7.24214 6.7473 7.31994 6.37676 7.31994H3.17252V1.30422Z" fill="#04CEC0"/>
</svg>
