<svg width="19" height="21" viewBox="0 0 19 21" fill="none" xmlns="http://www.w3.org/2000/svg">
<path d="M15.75 2.16667H14.7083V1.125C14.7083 0.848735 14.5986 0.583783 14.4032 0.388433C14.2079 0.193083 13.9429 0.0833359 13.6667 0.0833359C13.3904 0.0833359 13.1254 0.193083 12.9301 0.388433C12.7347 0.583783 12.625 0.848735 12.625 1.125V2.16667H6.375V1.125C6.375 0.848735 6.26525 0.583783 6.0699 0.388433C5.87455 0.193083 5.6096 0.0833359 5.33333 0.0833359C5.05707 0.0833359 4.79211 0.193083 4.59676 0.388433C4.40141 0.583783 4.29167 0.848735 4.29167 1.125V2.16667H3.25C2.4212 2.16667 1.62634 2.49591 1.04029 3.08196C0.45424 3.66801 0.125 4.46287 0.125 5.29167V17.7917C0.125 18.6205 0.45424 19.4153 1.04029 20.0014C1.62634 20.5874 2.4212 20.9167 3.25 20.9167H15.75C16.5788 20.9167 17.3737 20.5874 17.9597 20.0014C18.5458 19.4153 18.875 18.6205 18.875 17.7917V5.29167C18.875 4.46287 18.5458 3.66801 17.9597 3.08196C17.3737 2.49591 16.5788 2.16667 15.75 2.16667ZM3.25 4.25H4.29167V5.29167C4.29167 5.56794 4.40141 5.83289 4.59676 6.02824C4.79211 6.22359 5.05707 6.33334 5.33333 6.33334C5.6096 6.33334 5.87455 6.22359 6.0699 6.02824C6.26525 5.83289 6.375 5.56794 6.375 5.29167V4.25H12.625V5.29167C12.625 5.56794 12.7347 5.83289 12.9301 6.02824C13.1254 6.22359 13.3904 6.33334 13.6667 6.33334C13.9429 6.33334 14.2079 6.22359 14.4032 6.02824C14.5986 5.83289 14.7083 5.56794 14.7083 5.29167V4.25H15.75C16.0263 4.25 16.2912 4.35975 16.4866 4.5551C16.6819 4.75045 16.7917 5.0154 16.7917 5.29167V9.45834H2.20833V5.29167C2.20833 5.0154 2.31808 4.75045 2.51343 4.5551C2.70878 4.35975 2.97373 4.25 3.25 4.25ZM15.75 18.8333H3.25C2.97373 18.8333 2.70878 18.7236 2.51343 18.5282C2.31808 18.3329 2.20833 18.0679 2.20833 17.7917V11.5417H16.7917V17.7917C16.7917 18.0679 16.6819 18.3329 16.4866 18.5282C16.2912 18.7236 16.0263 18.8333 15.75 18.8333Z" fill="#7E7E7E"/>
<path d="M5.33341 15.7083C5.90871 15.7083 6.37508 15.242 6.37508 14.6667C6.37508 14.0914 5.90871 13.625 5.33341 13.625C4.75812 13.625 4.29175 14.0914 4.29175 14.6667C4.29175 15.242 4.75812 15.7083 5.33341 15.7083Z" fill="#7E7E7E"/>
<path d="M13.6666 13.625H9.49992C9.22365 13.625 8.9587 13.7348 8.76335 13.9301C8.568 14.1255 8.45825 14.3904 8.45825 14.6667C8.45825 14.9429 8.568 15.2079 8.76335 15.4032C8.9587 15.5986 9.22365 15.7083 9.49992 15.7083H13.6666C13.9429 15.7083 14.2078 15.5986 14.4032 15.4032C14.5985 15.2079 14.7083 14.9429 14.7083 14.6667C14.7083 14.3904 14.5985 14.1255 14.4032 13.9301C14.2078 13.7348 13.9429 13.625 13.6666 13.625Z" fill="#7E7E7E"/>
</svg>
