<svg width="21" height="20" viewBox="0 0 21 20" fill="none" xmlns="http://www.w3.org/2000/svg">
<path d="M16.2363 19.875C16.0793 19.8757 15.9245 19.8364 15.7848 19.7604L10.7788 16.9792L5.77278 19.7604C5.61022 19.8511 5.42695 19.8916 5.24378 19.8773C5.06062 19.863 4.88492 19.7944 4.73666 19.6794C4.58839 19.5644 4.47351 19.4075 4.40507 19.2266C4.33663 19.0458 4.31737 18.8482 4.3495 18.6563L5.33107 12.7917L1.287 8.625C1.16082 8.49138 1.07132 8.32382 1.02809 8.14031C0.984854 7.95679 0.989528 7.76424 1.04161 7.58333C1.0985 7.3982 1.20315 7.2337 1.34368 7.1085C1.48422 6.98329 1.65501 6.9024 1.83668 6.875L7.43163 6.01042L9.89537 0.666667C9.97575 0.490551 10.1012 0.342023 10.2575 0.238098C10.4137 0.134172 10.5944 0.079052 10.7788 0.079052C10.9632 0.079052 11.1438 0.134172 11.3001 0.238098C11.4563 0.342023 11.5818 0.490551 11.6622 0.666667L14.1554 6L19.7503 6.86458C19.932 6.89199 20.1028 6.97288 20.2433 7.09808C20.3839 7.22329 20.4885 7.38779 20.5454 7.57292C20.5975 7.75383 20.6022 7.94637 20.5589 8.12989C20.5157 8.31341 20.4262 8.48096 20.3 8.61458L16.2559 12.7813L17.2375 18.6458C17.2726 18.8411 17.2542 19.043 17.1846 19.2276C17.1151 19.4121 16.9972 19.5717 16.8449 19.6875C16.6671 19.8197 16.4531 19.8856 16.2363 19.875ZM10.7788 14.7708C10.9361 14.7666 11.0918 14.8061 11.2303 14.8854L14.9308 16.9688L14.2241 12.5833C14.1967 12.4159 14.2083 12.2439 14.2579 12.0823C14.3075 11.9207 14.3936 11.7744 14.5088 11.6563L17.4535 8.60417L13.3309 7.95833C13.1797 7.92603 13.0378 7.85639 12.9167 7.75504C12.7956 7.65369 12.6988 7.52349 12.634 7.375L10.7788 3.46875L8.92362 7.375C8.8526 7.52469 8.74859 7.65399 8.62043 7.75192C8.49227 7.84984 8.34374 7.9135 8.18744 7.9375L4.06484 8.58333L7.00955 11.6354C7.12467 11.7536 7.21079 11.8998 7.26041 12.0614C7.31003 12.223 7.32163 12.3951 7.29421 12.5625L6.58748 16.8958L10.288 14.8125C10.4448 14.7506 10.6147 14.7362 10.7788 14.7708Z" fill="#7E7E7E"/>
</svg>
