<svg width="17" height="19" viewBox="0 0 17 19" fill="none" xmlns="http://www.w3.org/2000/svg">
<path d="M8.63652 8.45834C9.53553 8.45834 10.4143 8.21396 11.1618 7.75613C11.9093 7.29829 12.4919 6.64754 12.836 5.88618C13.18 5.12483 13.27 4.28705 13.0946 3.47879C12.9192 2.67054 12.4863 1.92811 11.8506 1.34539C11.2149 0.762671 10.405 0.365835 9.52329 0.205063C8.64156 0.0442914 7.72762 0.126805 6.89705 0.442171C6.06648 0.757536 5.35657 1.29159 4.85711 1.97679C4.35765 2.662 4.09106 3.46758 4.09106 4.29167C4.09106 5.39674 4.56996 6.45655 5.4224 7.23795C6.27484 8.01935 7.43099 8.45834 8.63652 8.45834ZM8.63652 2.20834C9.08602 2.20834 9.52543 2.33052 9.89918 2.55944C10.2729 2.78836 10.5642 3.11373 10.7362 3.49441C10.9083 3.87509 10.9533 4.29398 10.8656 4.69811C10.7779 5.10223 10.5614 5.47345 10.2436 5.76481C9.92573 6.05617 9.52077 6.25459 9.07991 6.33497C8.63904 6.41536 8.18207 6.3741 7.76678 6.21642C7.3515 6.05874 6.99655 5.79171 6.74682 5.44911C6.49709 5.1065 6.36379 4.70371 6.36379 4.29167C6.36379 3.73913 6.60324 3.20923 7.02946 2.81853C7.45568 2.42783 8.03375 2.20834 8.63652 2.20834Z" fill="#7E7E7E"/>
<path d="M8.63643 10.5417C6.52675 10.5417 4.50348 11.3099 3.01172 12.6774C1.51995 14.0448 0.681885 15.8995 0.681885 17.8333C0.681885 18.1096 0.801609 18.3746 1.01472 18.5699C1.22783 18.7653 1.51687 18.875 1.81825 18.875C2.11963 18.875 2.40867 18.7653 2.62178 18.5699C2.83489 18.3746 2.95461 18.1096 2.95461 17.8333C2.95461 16.452 3.55323 15.1272 4.61878 14.1505C5.68433 13.1737 7.12952 12.625 8.63643 12.625C10.1433 12.625 11.5885 13.1737 12.6541 14.1505C13.7196 15.1272 14.3182 16.452 14.3182 17.8333C14.3182 18.1096 14.438 18.3746 14.6511 18.5699C14.8642 18.7653 15.1532 18.875 15.4546 18.875C15.756 18.875 16.045 18.7653 16.2581 18.5699C16.4713 18.3746 16.591 18.1096 16.591 17.8333C16.591 15.8995 15.7529 14.0448 14.2611 12.6774C12.7694 11.3099 10.7461 10.5417 8.63643 10.5417Z" fill="#7E7E7E"/>
</svg>
