<svg width="15" height="9" viewBox="0 0 15 9" fill="#fff"  xmlns="http://www.w3.org/2000/svg">
<path fill-rule="evenodd" clip-rule="evenodd" d="M7.58114 8.5874H8.44434C8.44434 8.5874 8.70509 8.55877 8.8382 8.41524C8.96073 8.28347 8.95681 8.03602 8.95681 8.03602C8.95681 8.03602 8.93995 6.87757 9.47752 6.70698C10.0074 6.53894 10.6879 7.8266 11.4092 8.32171C11.9546 8.69642 12.3691 8.61426 12.3691 8.61426L14.2976 8.5874C14.2976 8.5874 15.3065 8.52524 14.8281 7.73189C14.7889 7.66699 14.5495 7.14502 13.3942 6.07246C12.185 4.9499 12.3469 5.13147 13.8035 3.18968C14.6907 2.00711 15.0453 1.28514 14.9346 0.975921C14.8289 0.681407 14.1764 0.759252 14.1764 0.759252L12.005 0.772781C12.005 0.772781 11.844 0.75082 11.7246 0.822193C11.608 0.892194 11.5329 1.05533 11.5329 1.05533C11.5329 1.05533 11.1892 1.97044 10.7309 2.74869C9.76395 4.39087 9.37734 4.47754 9.21932 4.37557C8.85173 4.13792 8.94348 3.42086 8.94348 2.91144C8.94348 1.32004 9.18482 0.656506 8.47355 0.484739C8.23751 0.427679 8.06381 0.390031 7.46017 0.383953C6.68539 0.375914 6.0296 0.386306 5.65829 0.568269C5.41126 0.689251 5.2207 0.958862 5.33676 0.974353C5.48027 0.993568 5.80532 1.062 5.97765 1.29671C6.20016 1.59946 6.19232 2.27947 6.19232 2.27947C6.19232 2.27947 6.32015 4.15283 5.89374 4.38557C5.60104 4.54518 5.19953 4.2193 4.3375 2.72947C3.8958 1.96633 3.56232 1.12279 3.56232 1.12279C3.56232 1.12279 3.49802 0.965136 3.38333 0.880822C3.24413 0.778663 3.04965 0.746115 3.04965 0.746115L0.986235 0.759644C0.986235 0.759644 0.676477 0.768272 0.562769 0.902979C0.461607 1.02278 0.55473 1.27063 0.55473 1.27063C0.55473 1.27063 2.17018 5.05068 3.99932 6.95561C5.67652 8.7021 7.58114 8.5874 7.58114 8.5874Z" />
</svg>
