<svg width="21" height="28" viewBox="0 0 21 28" xmlns="http://www.w3.org/2000/svg">
<circle cx="10.4883" cy="8.5" r="6.5" fill="none" stroke-width="2.4"/>
<path d="M19.634 23.9251L18.4787 24.2497L19.634 23.9251ZM3.10639 27.2H17.8677V24.8H3.10639V27.2ZM2.49544 24.2497C3.47631 20.7582 6.6845 18.2 10.4871 18.2V15.8C5.581 15.8 1.44899 19.1008 0.184881 23.6005L2.49544 24.2497ZM10.4871 18.2C14.2896 18.2 17.4978 20.7582 18.4787 24.2497L20.7893 23.6005C19.5251 19.1008 15.3931 15.8 10.4871 15.8V18.2ZM17.8677 27.2C19.601 27.2 21.3669 25.6567 20.7893 23.6005L18.4787 24.2497C18.5137 24.3741 18.4891 24.4777 18.3979 24.5807C18.2935 24.6986 18.1043 24.8 17.8677 24.8V27.2ZM3.10639 24.8C2.86981 24.8 2.6806 24.6986 2.57625 24.5807C2.48506 24.4777 2.46046 24.3741 2.49544 24.2497L0.184881 23.6005C-0.392752 25.6567 1.37313 27.2 3.10639 27.2V24.8Z" stroke="none"/>
</svg>
