<svg width="28" height="28" viewBox="0 0 28 28" stroke="none" xmlns="http://www.w3.org/2000/svg">
<path d="M10.6753 0L9.97695 3.53281C8.80293 3.96795 7.72485 4.5779 6.78021 5.34023L3.3275 4.16992L0 9.83008L2.7655 12.1926C2.65919 12.8341 2.60413 13.4286 2.60413 14C2.60413 14.5723 2.66084 15.1657 2.7655 15.8074V15.8102L0 18.1727L3.3275 23.8301L6.77742 22.6625C7.72215 23.4252 8.80268 24.0318 9.97695 24.4672L10.6753 28H17.3247L18.0231 24.4672C19.1978 24.0318 20.2747 23.4228 21.2198 22.6598L24.6725 23.8301L27.9972 18.1727L25.2345 15.8074C25.3408 15.1659 25.3959 14.5714 25.3959 14C25.3959 13.4294 25.3405 12.8357 25.2345 12.1953V12.1926L28 9.82734L24.6725 4.16992L21.2226 5.3375C20.2778 4.57475 19.1973 3.96821 18.0231 3.53281L17.3247 0H10.6753ZM13.0234 2.8H14.9765L15.5302 5.6L17.0159 6.15234C17.9114 6.48406 18.716 6.93946 19.4141 7.50312L20.6439 8.49297L23.3816 7.56875L24.3581 9.22852L22.1713 11.0988L22.4217 12.6383V12.641C22.5088 13.1659 22.5469 13.6063 22.5469 14C22.5469 14.3937 22.5088 14.834 22.4217 15.359L22.1685 16.8984L24.3553 18.7687L23.3788 20.4312L20.6439 19.5043L19.4114 20.4969C18.7132 21.0605 17.9114 21.5159 17.0159 21.8477H17.0131L15.5274 22.4L14.9738 25.2H13.0234L12.4698 22.4L10.9841 21.8477C10.0886 21.5159 9.284 21.0605 8.58585 20.4969L7.35612 19.507L4.61844 20.4312L3.64189 18.7715L5.83148 16.8984L5.5783 15.3645V15.3617C5.49244 14.8345 5.4531 14.3929 5.4531 14C5.4531 13.6063 5.49119 13.166 5.5783 12.641L5.83148 11.1016L3.64189 9.23125L4.61844 7.56875L7.35612 8.4957L8.58585 7.50312C9.284 6.93946 10.0886 6.48406 10.9841 6.15234L12.4698 5.6L13.0234 2.8ZM14 8.4C10.8711 8.4 8.30207 10.9249 8.30207 14C8.30207 17.0751 10.8711 19.6 14 19.6C17.1289 19.6 19.6979 17.0751 19.6979 14C19.6979 10.9249 17.1289 8.4 14 8.4ZM14 11.2C15.5833 11.2 16.849 12.4439 16.849 14C16.849 15.5561 15.5833 16.8 14 16.8C12.4167 16.8 11.151 15.5561 11.151 14C11.151 12.4439 12.4167 11.2 14 11.2Z" />
</svg>
