<svg width="28" height="32" viewBox="0 0 28 32" xmlns="http://www.w3.org/2000/svg">
<path d="M2 27V8.25C2 6.59315 3.34314 5.25 5 5.25H14.3192C15.1623 5.25 15.9665 5.6048 16.5349 6.22752L21.9324 12.1408C22.4369 12.6935 22.7166 13.4149 22.7166 14.1633V27C22.7166 28.6568 21.3735 30 19.7166 30H5C3.34315 30 2 28.6568 2 27Z" fill="none" stroke-width="2.4"/>
<path d="M22.97 25.5H23.0017C24.6585 25.5 26.0017 24.1568 26.0017 22.5V5C26.0017 3.34314 24.6585 2 23.0017 2H8.54296C7.16225 2 6.04297 3.11929 6.04297 4.5V4.5" fill="none" stroke-width="2.4"/>
<rect x="5.03125" y="24.25" width="13" height="2.2" rx="1.1" stroke="none"  />
<rect x="5.03125" y="20.25" width="13" height="2.2" rx="1.1" stroke="none"  />
<path d="M10.3262 8.75C8.63888 8.75 7.25837 10.1 7.25837 11.75C7.25837 12.6594 7.69217 13.468 8.35127 14.0187C6.97316 14.7195 6.03125 16.1305 6.03125 17.75H7.25837C7.25837 16.0859 8.6245 14.75 10.3262 14.75C12.0278 14.75 13.394 16.0859 13.394 17.75H14.6211C14.6211 16.1305 13.6816 14.7195 12.3011 14.0187C12.9602 13.468 13.394 12.6594 13.394 11.75C13.394 10.1 12.0135 8.75 10.3262 8.75ZM10.3262 9.95C11.3496 9.95 12.1668 10.7492 12.1668 11.75C12.1668 12.7508 11.3496 13.55 10.3262 13.55C9.30277 13.55 8.48549 12.7508 8.48549 11.75C8.48549 10.7492 9.30277 9.95 10.3262 9.95Z" stroke="none" />
</svg>
