<svg width="23" height="28" viewBox="0 0 23 28" stroke="none" xmlns="http://www.w3.org/2000/svg">
  <path d="M11.0833 0C9.93621 0 9.00521 0.9408 9.00521 2.1V3.07344C5.42139 4.00693 2.77083 7.28672 2.77083 11.2V19.6L0 22.4V23.8H8.68591C8.44196 24.2254 8.31317 24.7083 8.3125 25.2C8.3125 25.9426 8.60443 26.6548 9.12406 27.1799C9.64369 27.705 10.3485 28 11.0833 28C11.8182 28 12.523 27.705 13.0426 27.1799C13.5622 26.6548 13.8542 25.9426 13.8542 25.2C13.8527 24.708 13.723 24.2252 13.478 23.8H22.1667V22.4L19.3958 19.6V11.2C19.3958 7.28672 16.7453 4.00693 13.1615 3.07344V2.1C13.1615 0.9408 12.2305 0 11.0833 0ZM11.0833 5.6C14.1396 5.6 16.625 8.1116 16.625 11.2V19.6V20.7594L16.8631 21H5.30355L5.54167 20.7594V19.6V11.2C5.54167 8.1116 8.0271 5.6 11.0833 5.6Z" />
</svg>