<svg width="28" height="32" viewBox="0 0 28 32" xmlns="http://www.w3.org/2000/svg">
<path d="M2 27V8.25C2 6.59315 3.34314 5.25 5 5.25H14.3192C15.1623 5.25 15.9665 5.6048 16.5349 6.22752L21.9324 12.1408C22.4369 12.6935 22.7166 13.4149 22.7166 14.1633V27C22.7166 28.6568 21.3735 30 19.7166 30H5C3.34315 30 2 28.6568 2 27Z" fill="none" stroke-width="2.4"/>
<path d="M22.97 25.5H23.0017C24.6585 25.5 26.0017 24.1568 26.0017 22.5V5C26.0017 3.34314 24.6585 2 23.0017 2H8.54296C7.16225 2 6.04297 3.11929 6.04297 4.5V4.5" fill="none" stroke-width="2.4"/>
<rect x="5.03125" y="24.25" width="12.6321" height="2.2" rx="1.1" stroke="none" />
<rect x="5.03125" y="20.25" width="12.6321" height="2.2" rx="1.1" stroke="none" />
<rect x="6.03125" y="9.5" width="7.00001" height="7" rx="2" stroke-width="2" fill="none" />
</svg>
