<svg width="31" height="32" viewBox="0 0 31 32" fill="none" xmlns="http://www.w3.org/2000/svg">
<path d="M23 7V4C23 2.89543 22.1046 2 21 2H4C2.89543 2 2 2.89543 2 4V28C2 29.1046 2.89543 30 4 30H21C22.1046 30 23 29.1046 23 28V12" stroke="#67BAEB" stroke-width="3"/>
<path d="M8 24.0771C8.69548 22.6738 9.4165 21.2837 10.0768 19.8645C10.4747 19.0108 11.0179 18.3012 11.6834 17.6391C16.4875 12.863 21.2714 8.06575 26.0605 3.27466C26.4769 2.85877 26.9497 2.57389 27.5527 2.51059C28.5379 2.40771 29.5714 3.0654 29.876 4.01676C30.1709 4.94086 29.9297 5.7278 29.2589 6.39955C28.0519 7.61029 26.8423 8.8184 25.6336 10.0265C21.7855 13.8741 17.9392 17.7235 14.0877 21.5677C13.9468 21.7083 13.776 21.8323 13.5982 21.922C11.9766 22.7415 10.3506 23.5504 8.7263 24.3646C8.65235 24.4015 8.58632 24.4543 8.51765 24.5C8.3451 24.5 8.17255 24.5 8 24.5C8 24.3593 8 24.2178 8 24.0771ZM25.3184 5.13957C20.7432 9.71348 16.1653 14.2909 11.6165 18.8384C12.2953 19.5181 12.9899 20.2127 13.6598 20.8845C18.2166 16.3264 22.7935 11.7472 27.3591 7.17946C26.6856 6.50594 25.9954 5.81572 25.3184 5.13957ZM27.9815 6.63431C28.2271 6.38548 28.4859 6.12786 28.7404 5.86496C28.8319 5.76912 28.9217 5.66889 28.9965 5.55986C29.3452 5.05604 29.3355 4.37638 28.9789 3.88926C28.5836 3.34852 27.9507 3.12079 27.3485 3.31071C26.6821 3.52085 26.3405 4.11611 25.8713 4.51881C26.5835 5.23277 27.2719 5.92299 27.9815 6.63431ZM12.9758 21.4076C12.3437 20.7755 11.7248 20.1582 11.0909 19.526C10.4844 20.7403 9.869 21.9712 9.25363 23.2022C9.27036 23.2163 9.2862 23.2303 9.30205 23.2435C10.5301 22.6298 11.7582 22.0161 12.9758 21.4076Z" fill="#F4C23F" stroke="#F4C23F" stroke-width="1.6"/>
</svg>
