<svg width="32" height="28" viewBox="0 0 32 28" fill="none" xmlns="http://www.w3.org/2000/svg">
<path d="M27.86 1.7675C27.51 0.735 26.53 0 25.375 0H6.125C4.97 0 4.0075 0.735 3.64 1.7675L0 12.25V26.25C0 27.2125 0.7875 28 1.75 28H3.5C4.4625 28 5.25 27.2125 5.25 26.25V24.5H26.25V26.25C26.25 27.2125 27.0375 28 28 28H29.75C30.7125 28 31.5 27.2125 31.5 26.25V12.25L27.86 1.7675ZM6.7375 3.5H24.745L26.635 8.9425H4.8475L6.7375 3.5ZM28 21H3.5V12.25H28V21Z" fill="#67BAEB"/>
<path d="M7.875 19.25C9.32475 19.25 10.5 18.0747 10.5 16.625C10.5 15.1753 9.32475 14 7.875 14C6.42525 14 5.25 15.1753 5.25 16.625C5.25 18.0747 6.42525 19.25 7.875 19.25Z" fill="#F4C23F"/>
<path d="M23.625 19.25C25.0747 19.25 26.25 18.0747 26.25 16.625C26.25 15.1753 25.0747 14 23.625 14C22.1753 14 21 15.1753 21 16.625C21 18.0747 22.1753 19.25 23.625 19.25Z" fill="#F4C23F"/>
</svg>
