<svg width="32" height="32" viewBox="0 0 32 32" fill="none" xmlns="http://www.w3.org/2000/svg">
<g clip-path="url(#clip0_1357_8041)">
<path d="M25.3346 9.33333H22.668V12H25.3346V9.33333Z" fill="#67BAEB"/>
<path d="M25.3346 14.6667H22.668V17.3333H25.3346V14.6667Z" fill="#67BAEB"/>
<path d="M25.3346 20H22.668V22.6667H25.3346V20Z" fill="#67BAEB"/>
<path d="M1.33398 14.6667V28H9.33398V21.3333H12.0007V28H20.0007V14.6667L10.6673 8L1.33398 14.6667ZM17.334 25.3333H14.6673V18.6667H6.66732V25.3333H4.00065V16L10.6673 11.3333L17.334 16V25.3333Z" fill="#F4C23F"/>
<path d="M13.334 4V6.62667L16.0007 8.53333V6.66667H28.0007V25.3333H22.6673V28H30.6673V4H13.334Z" fill="#67BAEB"/>
</g>
<defs>
<clipPath id="clip0_1357_8041">
<rect width="32" height="32" fill="white"/>
</clipPath>
</defs>
</svg>
