<svg width="36" height="33" viewBox="0 0 36 33" fill="none" xmlns="http://www.w3.org/2000/svg">
<path d="M30 12.619H18V14.0475H30V12.619Z" fill="#F4C23F" stroke="#F4C23F" stroke-width="1.3"/>
<path d="M30 18.0475H22V19.4761H30V18.0475Z" fill="#F4C23F" stroke="#F4C23F" stroke-width="1.3"/>
<path d="M32.1667 1H3.83333C2.27496 1 1 2.28568 1 3.85714V22.4286C1 24 2.27496 25.2857 3.83333 25.2857H6.66667V31L10.2083 27.4286L13.7499 31V25.2857H32.1667C33.725 25.2857 35 24 35 22.4286V3.85714C35 2.28568 33.725 1 32.1667 1ZM12.3333 27.5714L10.2083 25.4285L8.08326 27.5714V22C8.79156 22.2857 9.49993 22.4285 10.2083 22.4285C10.9167 22.4285 11.625 22.2857 12.3333 22V27.5714ZM10.2083 21C8.22496 21 6.66667 19.4286 6.66667 17.4286C6.66667 15.4286 8.22504 13.8572 10.2083 13.8572C12.1916 13.8572 13.7499 15.4286 13.7499 17.4286C13.7499 19.4286 12.1916 21 10.2083 21ZM33.5833 22.4285C33.5833 23.2856 33.0167 23.8571 32.1667 23.8571H13.75V20.8571C14.6 19.9999 15.1667 18.7142 15.1667 17.4285C15.1667 14.7143 12.9 12.4285 10.2083 12.4285C7.51659 12.4285 5.24993 14.7142 5.24993 17.4285C5.24993 18.8571 5.81659 20 6.66659 20.8571V23.8571H3.83333C2.98333 23.8571 2.41667 23.1428 2.41667 22.4285V3.85714C2.41667 3 2.98333 2.42857 3.83333 2.42857H32.1667C33.0167 2.42857 33.5833 3.14282 33.5833 3.85714V22.4285Z" fill="#67BAEB" stroke="#67BAEB" stroke-width="1.3"/>
<path d="M30 7.1904H6V8.61897H30V7.1904Z" fill="#F4C23F" stroke="#F4C23F" stroke-width="1.3"/>
</svg>
