<svg width="44" height="44" viewBox="0 0 44 44" fill="none" xmlns="http://www.w3.org/2000/svg">
<g clip-path="url(#clip0_1357_8033)">
<path d="M39.7645 30.0117L41.8545 28.1783L40.0212 25.0067L37.3629 25.905C36.7762 25.41 36.1162 25.025 35.3829 24.75L34.8329 22H31.1662L30.6162 24.7317C29.8829 25.0067 29.2229 25.3917 28.6362 25.8867L25.9779 24.9883L24.1445 28.16L26.2345 29.9933C26.0879 30.91 26.0879 31.3867 26.2345 32.3033L24.1445 34.1367L25.9779 37.3083L28.6362 36.41C29.2229 36.905 29.8829 37.29 30.6162 37.565L31.1662 40.3333H34.8329L35.3829 37.6017C36.1162 37.3267 36.7762 36.9417 37.3629 36.4467L40.0212 37.345L41.8545 34.1733L39.7645 32.34C39.9112 31.405 39.9112 30.9283 39.7645 30.0117ZM32.9995 34.8333C30.9829 34.8333 29.3329 33.1833 29.3329 31.1667C29.3329 29.15 30.9829 27.5 32.9995 27.5C35.0162 27.5 36.6662 29.15 36.6662 31.1667C36.6662 33.1833 35.0162 34.8333 32.9995 34.8333Z" fill="#F4C23F"/>
<path d="M31.625 12.375V20.625H28.875V15.125H26.125V23.375H23.375V13.75H15.125V33H22V35.75H9.625V33H12.375V11H26.125V12.375H31.625ZM22 24.75H19.25V22H22V24.75Z" fill="#67BAEB"/>
</g>
<defs>
<clipPath id="clip0_1357_8033">
<rect width="44" height="44" fill="white"/>
</clipPath>
</defs>
</svg>
