<svg width="35" height="28" viewBox="0 0 35 28" fill="none" xmlns="http://www.w3.org/2000/svg">
<path d="M1.18274 13.5609L8.58412 6.18093C8.82661 5.93928 9.21922 5.93968 9.46131 6.18218C9.70322 6.42465 9.70259 6.81743 9.46006 7.05927L2.49924 14L9.46031 20.9408C9.70281 21.1826 9.70344 21.5752 9.46156 21.8177C9.34021 21.9392 9.18122 22 9.02223 22C8.86365 22 8.70529 21.9396 8.58415 21.8189L1.18274 14.4391C1.06595 14.3229 1.00041 14.1648 1.00041 14C1.00041 13.8353 1.06613 13.6773 1.18274 13.5609Z" fill="#67BAEB" stroke="#67BAEB" stroke-width="2"/>
<path d="M33.4598 13.5609L26.0585 6.18093C25.816 5.93928 25.4234 5.93968 25.1813 6.18218C24.9394 6.42465 24.94 6.81743 25.1825 7.05927L32.1433 14L25.1823 20.9408C24.9398 21.1826 24.9391 21.5752 25.181 21.8177C25.3024 21.9392 25.4614 22 25.6203 22C25.7789 22 25.9373 21.9396 26.0584 21.8189L33.4598 14.4391C33.5766 14.3229 33.6422 14.1648 33.6422 14C33.6422 13.8353 33.5764 13.6773 33.4598 13.5609Z" fill="#67BAEB" stroke="#67BAEB" stroke-width="2"/>
<rect x="21.3535" width="3" height="28" rx="1.5" transform="rotate(22 21.3535 0)" fill="#F4C23F"/>
</svg>
