<svg width="37" height="38" viewBox="0 0 37 38" fill="none" xmlns="http://www.w3.org/2000/svg">
<path d="M32.3488 4.70561L31.4272 1.41846L28.0528 6.04283V7.97716L18.2377 20.2037L18.0781 20.1161C17.7427 19.9319 17.3617 19.835 16.977 19.835C15.713 19.835 14.6836 20.8636 14.6836 22.128C14.6836 23.3924 15.713 24.4211 16.977 24.4211C18.2418 24.4211 19.2701 23.3924 19.2701 22.128C19.2701 21.7028 19.1509 21.2854 18.9255 20.9219L18.8356 20.7789L29.5 9.5L31.5486 9.13464L35.7028 5.19579L32.3488 4.70561Z" fill="#F4C23F"/>
<path d="M25.5343 14.2933C27.3793 16.3342 28.505 19.0382 28.505 22C28.505 28.3437 23.3441 33.505 16.9996 33.505C10.6559 33.505 5.49498 28.3437 5.49498 22C5.49498 15.6559 10.6559 10.4946 16.9996 10.4946C19.4659 10.4946 21.7516 11.2778 23.6269 12.6042L25.8171 9.8756C23.34 8.06935 20.2931 7 16.9996 7C8.7284 7 2 13.7291 2 22C2 30.2709 8.7284 37 16.9996 37C25.2709 37 32 30.2709 32 22C32 18.0465 30.4598 14.4485 27.9517 11.7662L25.5343 14.2933Z" fill="#67BAEB"/>
<path d="M21.3811 18.6208C22.1057 19.5574 22.5411 20.7277 22.5411 22C22.5411 25.0549 20.0549 27.5407 17 27.5407C13.9447 27.5407 11.4593 25.0549 11.4593 22C11.4593 18.9451 13.9447 16.4589 17 16.4589C18.0573 16.4589 19.043 16.7621 19.8843 17.2784L22.0632 14.5648C20.6192 13.5787 18.8764 13 17 13C12.0373 13 8 17.0373 8 22C8 26.9624 12.0373 31 17 31C21.9627 31 26.0004 26.9624 26.0004 22C26.0004 19.7458 25.1613 17.688 23.7871 16.107L21.3811 18.6208Z" fill="#67BAEB"/>
</svg>
