<svg width="34" height="34" viewBox="0 0 34 34" fill="none" xmlns="http://www.w3.org/2000/svg">
<g clip-path="url(#clip0_1357_8065)">
<path d="M28.334 8.5H22.6673V5.66667C22.6673 4.10833 21.3923 2.83333 19.834 2.83333H14.1673C12.609 2.83333 11.334 4.10833 11.334 5.66667V8.5H5.66732C4.10898 8.5 2.83398 9.775 2.83398 11.3333V28.3333C2.83398 29.8917 4.10898 31.1667 5.66732 31.1667H28.334C29.8923 31.1667 31.1673 29.8917 31.1673 28.3333V11.3333C31.1673 9.775 29.8923 8.5 28.334 8.5ZM14.1673 5.66667H19.834V8.5H14.1673V5.66667ZM28.334 27.3333C28.334 27.8856 27.8863 28.3333 27.334 28.3333H6.66732C6.11503 28.3333 5.66732 27.8856 5.66732 27.3333V12.3333C5.66732 11.781 6.11503 11.3333 6.66732 11.3333H27.334C27.8863 11.3333 28.334 11.781 28.334 12.3333V27.3333Z" fill="#67BAEB"/>
<path d="M18.4173 14.1667H15.584V18.4167H11.334V21.25H15.584V25.5H18.4173V21.25H22.6673V18.4167H18.4173V14.1667Z" fill="#F4C23F"/>
</g>
<defs>
<clipPath id="clip0_1357_8065">
<rect width="34" height="34" fill="white"/>
</clipPath>
</defs>
</svg>
