<svg width="32" height="32" viewBox="0 0 32 32" fill="none" xmlns="http://www.w3.org/2000/svg">
<g clip-path="url(#clip0_1370_8229)">
<path d="M22.4 21.3333C21.181 24.8381 17.8286 27.4286 13.7143 27.4286C8.68571 27.4286 4.57143 23.3143 4.57143 18.2857C4.57143 14.3238 7.1619 10.9714 10.6667 9.60001C10.6667 9.44762 10.6667 9.29524 10.6667 9.14286C10.6667 7.61905 10.9714 6.09524 11.4286 4.72382C5.02857 5.79048 0 11.4286 0 18.2857C0 25.9048 6.09524 32 13.7143 32C20.5714 32 26.2095 26.9714 27.2762 20.5714C25.9048 21.0286 24.381 21.3333 22.8571 21.3333C22.7048 21.3333 22.5524 21.3333 22.4 21.3333Z" fill="#67BAEB"/>
<path d="M22.8577 0C17.8291 0 13.7148 4.11429 13.7148 9.14286C13.7148 14.1714 17.8291 18.2857 22.8577 18.2857C27.8863 18.2857 32.0006 14.1714 32.0006 9.14286C32.0006 4.11429 27.8863 0 22.8577 0ZM22.8577 13.7143C20.2672 13.7143 18.2863 11.7333 18.2863 9.14286C18.2863 6.55238 20.2672 4.57143 22.8577 4.57143C25.4482 4.57143 27.4291 6.55238 27.4291 9.14286C27.4291 11.7333 25.4482 13.7143 22.8577 13.7143Z" fill="#F4C23F"/>
</g>
<defs>
<clipPath id="clip0_1370_8229">
<rect width="32" height="32" fill="white"/>
</clipPath>
</defs>
</svg>
