<svg width="40" height="35" viewBox="0 0 40 35" fill="none" xmlns="http://www.w3.org/2000/svg">
<circle cx="32.9993" cy="25.0833" r="2.58333" stroke="#67BAEB" stroke-width="3"/>
<path fill-rule="evenodd" clip-rule="evenodd" d="M37 35H40C40 31.134 36.866 28 33 28C29.134 28 26 31.134 26 35H29C29 32.7909 30.7909 31 33 31C35.2091 31 37 32.7909 37 35Z" fill="#67BAEB"/>
<circle cx="6.99935" cy="25.0833" r="2.58333" stroke="#67BAEB" stroke-width="3"/>
<path fill-rule="evenodd" clip-rule="evenodd" d="M11 35H14C14 31.134 10.866 28 7 28C3.13401 28 0 31.134 0 35H3C3 32.7909 4.79086 31 7 31C9.20914 31 11 32.7909 11 35Z" fill="#67BAEB"/>
<circle cx="19.9993" cy="4.08333" r="2.58333" stroke="#67BAEB" stroke-width="3"/>
<path fill-rule="evenodd" clip-rule="evenodd" d="M24 14H27C27 10.134 23.866 7 20 7C16.134 7 13 10.134 13 14H16C16 11.7909 17.7909 10 20 10C22.2091 10 24 11.7909 24 14Z" fill="#67BAEB"/>
<path fill-rule="evenodd" clip-rule="evenodd" d="M20.9994 15H18.9994V17.5908C16.4397 18.0614 14.5003 20.3042 14.5003 23C14.5003 23.9997 14.767 24.9371 15.2332 25.745L15.2199 25.7322L13.002 27.8536L14.4806 29.2678L16.5529 27.2857C17.496 28.0453 18.695 28.5 20.0003 28.5C21.3057 28.5 22.5048 28.0452 23.448 27.2855L25.5206 29.2678L26.9992 27.8536L24.7812 25.7322L24.7667 25.7462C25.2333 24.9381 25.5003 24.0002 25.5003 23C25.5003 20.3036 23.56 18.0605 20.9994 17.5905V15ZM17.5003 23C17.5003 21.6193 18.6196 20.5 20.0003 20.5C21.381 20.5 22.5003 21.6193 22.5003 23C22.5003 24.3807 21.381 25.5 20.0003 25.5C18.6196 25.5 17.5003 24.3807 17.5003 23Z" fill="#F4C23F"/>
</svg>
