<svg width="30" height="30" viewBox="0 0 30 30" fill="none" xmlns="http://www.w3.org/2000/svg">
<path fill-rule="evenodd" clip-rule="evenodd" d="M4.60923 0H6.00029H11.5003H12.8654L12.9937 1.35912L15.3654 26.5H30V29.5H0V26.5H2.60923L4.50454 1.38711L4.60923 0ZM7.39134 3L7.05172 7.5H10.5597L10.1351 3H7.39134ZM5.61776 26.5L6.82531 10.5H10.8427L12.3521 26.5H5.61776Z" fill="#67BAEB"/>
<path fill-rule="evenodd" clip-rule="evenodd" d="M16.5348 5.09827L27.0348 9.09827L28.0008 9.46627V10.5V26.5H25.0008V23.5H17.0008V20.5H25.0008V11.5337L15.4668 7.90173L16.5348 5.09827ZM17.0004 14.5H25.0004V17.5H17.0004V14.5Z" fill="#F4C23F"/>
</svg>
