<svg width="30" height="30" viewBox="0 0 30 30" fill="none" xmlns="http://www.w3.org/2000/svg">
<path d="M0 28.6091C0 29.3727 0.613636 29.9864 1.37727 29.9864H19.0909C19.8545 29.9864 20.4682 29.3727 20.4682 28.6091V27.2727H0V28.6091ZM10.2273 10.8954C5.11364 10.8954 0 13.6364 0 19.0909H20.4545C20.4545 13.6364 15.3409 10.8954 10.2273 10.8954ZM3.57273 16.3636C5.08636 14.25 8.30455 13.6227 10.2273 13.6227C12.15 13.6227 15.3682 14.25 16.8818 16.3636H3.57273ZM0 21.8182H20.4545V24.5454H0V21.8182Z" fill="#F4C23F"/>
<path d="M23.1822 5.45455V0H20.4549V5.45455H13.6367L13.9504 8.18182H26.9867L25.0776 27.2727H23.1822V30H25.5276C26.6731 30 27.614 29.1136 27.7504 27.9955L30.0004 5.45455H23.1822Z" fill="#67BAEB"/>
</svg>
