<svg width="36" height="36" viewBox="0 0 36 36" fill="none" xmlns="http://www.w3.org/2000/svg">
<g clip-path="url(#clip0_1369_8169)">
<path d="M18 3C11.37 3 6 3.75 6 9V24C6 25.32 6.585 26.505 7.5 27.33V30C7.5 30.825 8.175 31.5 9 31.5H10.5C11.325 31.5 12 30.825 12 30V28.5H24V30C24 30.825 24.675 31.5 25.5 31.5H27C27.825 31.5 28.5 30.825 28.5 30V27.33C29.415 26.505 30 25.32 30 24V9C30 3.75 24.63 3 18 3ZM26.49 7.485H9.51C10.335 6.69 12.465 6 18 6C23.535 6 25.665 6.69 26.49 7.485ZM27 10.485V15H9V10.485H27ZM26.49 25.095L26.055 25.5H9.945L9.51 25.095C9.315 24.93 9 24.555 9 24V18H27V24C27 24.555 26.685 24.93 26.49 25.095Z" fill="#67BAEB"/>
<path d="M12.75 24C13.9926 24 15 22.9926 15 21.75C15 20.5074 13.9926 19.5 12.75 19.5C11.5074 19.5 10.5 20.5074 10.5 21.75C10.5 22.9926 11.5074 24 12.75 24Z" fill="#F4C23F"/>
<path d="M23.25 24C24.4926 24 25.5 22.9926 25.5 21.75C25.5 20.5074 24.4926 19.5 23.25 19.5C22.0074 19.5 21 20.5074 21 21.75C21 22.9926 22.0074 24 23.25 24Z" fill="#F4C23F"/>
</g>
<defs>
<clipPath id="clip0_1369_8169">
<rect width="36" height="36" fill="white"/>
</clipPath>
</defs>
</svg>
